<svg width="156" height="156" viewBox="0 0 156 156" fill="none" xmlns="http://www.w3.org/2000/svg">
<g clip-path="url(#clip0_130_611)">
<path d="M156 78.0018C156 121.083 121.081 156.001 78.0012 156C34.919 156.001 9.76911e-08 121.083 9.76911e-08 78.0018C-0.00213271 34.9202 34.919 0 78.0012 0C121.081 0 156 34.9215 156 78.0018Z" fill="url(#paint0_linear_130_611)"/>
<path d="M152.811 100.129C150.996 98.3141 100.888 48.2055 100.861 48.1784C100.321 47.6351 99.5113 47.4608 98.7974 47.7247C97.6091 48.1674 96.1682 48.7616 94.6914 49.5708C94.6411 49.5211 94.5796 49.4815 94.5293 49.4325C94.38 49.281 83.8451 38.7358 83.7111 38.6051C80.6548 35.4717 76.788 32.973 72.3051 31.3197C71.5452 31.0357 70.6714 31.2634 70.1418 31.8901C69.6126 32.5159 69.5309 33.4074 69.9404 34.1195C71.3877 36.6417 72.033 38.6901 71.9684 40.6471C71.9913 43.2272 70.5074 45.4804 69.2375 46.942C68.3655 47.9809 67.2991 48.8746 66.1714 49.8222L65.8043 50.1296C63.921 51.738 62.3519 53.7048 61.1825 55.876C60.9634 55.8897 60.7443 55.94 60.535 56.029C56.2027 57.8821 52.8877 63.516 52.1656 66.8399C51.5793 69.3536 51.6342 71.848 51.7484 73.7438C51.9827 77.5253 52.8094 80.9643 54.1972 83.9508C55.412 86.6257 57.1277 89.0318 59.2952 91.1009C59.3349 91.139 59.3867 91.1512 59.4284 91.185C59.5451 91.3014 65.3716 97.1407 65.4 97.1688L49.5108 91.9087C48.1227 91.4477 46.6507 91.597 45.371 92.3276C44.0264 93.0957 43.0612 94.4366 42.7199 96.0067L42.0597 99.0524C41.5963 101.198 42.3948 103.377 43.9503 104.687C44.0971 104.843 49.4023 110.139 49.4081 110.145L45.6264 111.352C43.0121 112.186 41.4445 114.988 42.0618 117.732L42.7093 120.611C42.9722 121.777 43.613 122.803 44.4996 123.554C44.6453 123.711 65.9444 145.014 69.8444 148.912C72.2052 151.273 74.6369 153.705 76.9184 155.987C77.2797 155.992 77.6402 156.001 78.0024 156.001C113.394 156.001 143.273 132.43 152.811 100.129Z" fill="url(#paint1_linear_130_611)"/>
<path d="M54.1963 83.9514C55.4111 86.6259 57.1271 89.032 59.2943 91.1012C60.0731 91.8458 61.3056 91.8172 62.0518 91.0375C62.7943 90.2587 62.7656 89.0247 61.9872 88.2813C60.2066 86.5817 58.7404 84.5269 57.7407 82.3237C56.5525 79.7644 55.8459 76.7964 55.6402 73.5067C55.4955 71.0884 55.5945 69.3056 55.9699 67.6987C56.2651 66.3343 57.2648 64.31 58.5997 62.5894C58.4187 65.6278 58.7672 69.3571 60.8068 72.783C61.3364 73.6703 62.4616 73.9933 63.3836 73.5143C64.3013 73.0362 64.6861 71.926 64.2595 70.9836C62.9229 68.0186 62.4332 66.2582 62.8695 63.0282C63.3836 59.2424 65.3774 55.6224 68.3274 53.1048L68.6778 52.8096C69.8853 51.7974 71.1327 50.7502 72.2027 49.476C73.8938 47.5318 75.901 44.4154 75.8666 40.697C75.9105 39.421 75.7313 38.1995 75.4324 37.0645C78.5 38.8326 81.0844 41.1093 83.0438 43.7932C85.4871 47.0705 86.8067 51.0588 86.7613 55.0353C86.7537 56.4387 86.5861 57.8948 86.2662 59.3628C86.049 60.357 86.6318 61.3509 87.6068 61.6449C88.5779 61.9389 89.6181 61.4347 89.987 60.4868C90.7223 58.5995 91.5979 57.1267 92.6817 55.96C93.6241 54.9134 94.7935 53.9939 96.256 53.1599C95.6524 55.5329 95.3343 58.0825 95.717 60.7068C96.0787 63.349 97.1889 65.6265 98.263 67.8279L98.4153 68.1393C99.4168 70.2237 99.9957 71.9336 100.236 73.5295C100.493 75.1864 100.489 77.0401 100.228 79.353C99.8013 82.9425 98.4208 86.143 96.3416 88.3651C95.6046 89.1515 95.6445 90.3855 96.4309 91.1213C96.8078 91.4735 97.2858 91.6478 97.7639 91.6478C98.284 91.6478 98.8035 91.44 99.1865 91.0308C101.834 88.206 103.578 84.2219 104.104 79.8009C104.406 77.1236 104.401 74.9402 104.092 72.94C103.793 70.9564 103.106 68.8943 101.927 66.4416L101.769 66.1189C100.787 64.1034 99.8592 62.1997 99.5774 60.1604C99.0786 56.7278 100.169 53.2221 101.301 50.2456C101.573 49.5305 101.402 48.7219 100.863 48.1786C100.322 47.6347 99.5128 47.4608 98.7986 47.7246C96.4735 48.5902 93.1829 50.0098 90.5437 52.5637C90.1229 48.6024 88.6129 44.7372 86.1827 41.4788C82.8903 36.9655 78.0914 33.4534 72.3063 31.3193C71.5464 31.0357 70.6726 31.263 70.143 31.8897C69.6135 32.5165 69.5318 33.4074 69.9413 34.1194C71.3886 36.6416 72.0339 38.69 71.9693 40.6473C71.9922 43.2274 70.5087 45.4803 69.2387 46.9419C68.3664 47.9806 67.3 48.8745 66.1727 49.8221L65.8052 50.1295C63.9219 51.7377 62.3528 53.7047 61.1834 55.8759C60.9643 55.8893 60.7453 55.9396 60.5359 56.0292C56.2036 57.882 52.8883 63.516 52.1665 66.8401C51.58 69.3538 51.6351 71.8483 51.7494 73.744C51.9815 77.5252 52.8078 80.9642 54.1963 83.9514Z" fill="url(#paint2_linear_130_611)"/>
<path d="M113.94 98.7149L113.292 95.8356C112.957 94.3515 112.024 93.0755 110.729 92.3339C109.461 91.6066 107.994 91.4503 106.608 91.8933L45.6249 111.351C43.0103 112.185 41.443 114.987 42.06 117.732L42.7075 120.611C43.0426 122.095 43.9756 123.371 45.2708 124.113C46.0666 124.569 46.939 124.8 47.8226 124.8C48.346 124.8 48.8756 124.718 49.3917 124.553L110.375 105.095C112.989 104.261 114.557 101.459 113.94 98.7149ZM109.191 101.38L48.2074 120.838C47.8722 120.945 47.5182 120.905 47.2095 120.729C46.8552 120.526 46.6078 120.18 46.5124 119.755L45.8649 116.877C45.6879 116.087 46.1029 115.292 46.8095 115.067L107.793 95.6087C107.916 95.5697 108.042 95.5495 108.168 95.5495C108.383 95.5495 108.596 95.6068 108.791 95.7183C109.145 95.9213 109.392 96.2671 109.488 96.6924L110.135 99.5705C110.312 100.36 109.897 101.155 109.191 101.38Z" fill="url(#paint3_linear_130_611)"/>
<path d="M45.6516 105.649L50.1839 107.149C50.3877 107.217 50.5934 107.249 50.7972 107.249C51.6162 107.249 52.3776 106.731 52.6482 105.912C52.9873 104.889 52.4331 103.786 51.4102 103.448L46.878 101.947C46.1294 101.7 45.6766 100.771 45.8704 99.8785L46.5313 96.8325C46.6379 96.342 46.9198 95.9346 47.3046 95.7149C47.5197 95.5912 47.8606 95.4721 48.2835 95.6113L66.662 101.696C67.6863 102.034 68.789 101.481 69.126 100.458C69.4651 99.4352 68.9109 98.3316 67.888 97.9937L49.5096 91.9094C48.1214 91.4484 46.6492 91.598 45.3698 92.3283C44.0252 93.0968 43.06 94.4374 42.719 96.0074L42.0582 99.0534C41.447 101.882 43.0258 104.779 45.6516 105.649Z" fill="url(#paint4_linear_130_611)"/>
<path d="M110.348 110.798L105.816 109.297C104.792 108.956 103.689 109.512 103.352 110.535C103.013 111.558 103.567 112.661 104.59 112.999L109.122 114.5C109.871 114.748 110.324 115.677 110.13 116.569L109.469 119.615C109.362 120.105 109.081 120.513 108.696 120.732C108.481 120.855 108.136 120.971 107.717 120.836L89.3384 114.752C88.3159 114.414 87.2132 114.967 86.8744 115.99C86.5353 117.012 87.0895 118.116 88.1123 118.454L106.491 124.538C107.02 124.713 107.561 124.801 108.1 124.801C108.974 124.801 109.839 124.571 110.631 124.119C111.975 123.35 112.94 122.01 113.281 120.44L113.942 117.394C114.553 114.565 112.974 111.667 110.348 110.798Z" fill="url(#paint5_linear_130_611)"/>
</g>
<defs>
<linearGradient id="paint0_linear_130_611" x1="78" y1="0" x2="78" y2="156" gradientUnits="userSpaceOnUse">
<stop offset="0.114583" stop-color="#006567"/>
<stop offset="0.869792" stop-color="#94C1E8"/>
</linearGradient>
<linearGradient id="paint1_linear_130_611" x1="97.3695" y1="31.199" x2="97.3695" y2="156.001" gradientUnits="userSpaceOnUse">
<stop offset="0.28125" stop-color="#F4EEE0"/>
<stop offset="0.979167" stop-color="#FF6655"/>
</linearGradient>
<linearGradient id="paint2_linear_130_611" x1="78.0016" y1="31.1987" x2="78.0016" y2="91.6478" gradientUnits="userSpaceOnUse">
<stop stop-color="#333333"/>
<stop offset="1" stop-color="#4D4D4D"/>
</linearGradient>
<linearGradient id="paint3_linear_130_611" x1="77.9999" y1="91.6462" x2="77.9999" y2="124.8" gradientUnits="userSpaceOnUse">
<stop stop-color="#333333"/>
<stop offset="1" stop-color="#4D4D4D"/>
</linearGradient>
<linearGradient id="paint4_linear_130_611" x1="55.5763" y1="91.6467" x2="55.5763" y2="107.249" gradientUnits="userSpaceOnUse">
<stop stop-color="#333333"/>
<stop offset="1" stop-color="#4D4D4D"/>
</linearGradient>
<linearGradient id="paint5_linear_130_611" x1="100.424" y1="109.197" x2="100.424" y2="124.801" gradientUnits="userSpaceOnUse">
<stop stop-color="#333333"/>
<stop offset="1" stop-color="#4D4D4D"/>
</linearGradient>
<clipPath id="clip0_130_611">
<rect width="156" height="156" fill="white"/>
</clipPath>
</defs>
</svg>
